<svg xmlns="http://www.w3.org/2000/svg" style="display: none;">
  <symbol id="icon-strategy" viewBox="0 0 64 64">
    <path d="M32 8C19.2 8 8 19.2 8 32s11.2 24 24 24 24-11.2 24-24S44.8 8 32 8zm0 44c-11 0-20-9-20-20s9-20 20-20 20 9 20 20-9 20-20 20z"/>
    <path d="M32 18c-7.7 0-14 6.3-14 14s6.3 14 14 14 14-6.3 14-14-6.3-14-14-14zm0 24c-5.5 0-10-4.5-10-10s4.5-10 10-10 10 4.5 10 10-4.5 10-10 10z"/>
    <path d="M32 28c-2.2 0-4 1.8-4 4s1.8 4 4 4 4-1.8 4-4-1.8-4-4-4z"/>
  </symbol>
  
  <symbol id="icon-punctuality" viewBox="0 0 64 64">
    <path d="M32 8C19.2 8 8 19.2 8 32s11.2 24 24 24 24-11.2 24-24S44.8 8 32 8zm0 44c-11 0-20-9-20-20s9-20 20-20 20 9 20 20-9 20-20 20z"/>
    <path d="M42 30h-8V18c0-1.1-.9-2-2-2s-2 .9-2 2v14c0 1.1.9 2 2 2h10c1.1 0 2-.9 2-2s-.9-2-2-2z"/>
  </symbol>
  
  <symbol id="icon-diligence" viewBox="0 0 64 64">
    <path d="M56 16H44V8c0-1.1-.9-2-2-2H22c-1.1 0-2 .9-2 2v8H8c-1.1 0-2 .9-2 2v36c0 1.1.9 2 2 2h48c1.1 0 2-.9 2-2V18c0-1.1-.9-2-2-2zM24 10h16v6H24v-6zm30 42H10V20h8v4c0 1.1.9 2 2 2h24c1.1 0 2-.9 2-2v-4h8v32z"/>
    <path d="M32 26c-6.6 0-12 5.4-12 12s5.4 12 12 12 12-5.4 12-12-5.4-12-12-12zm0 20c-4.4 0-8-3.6-8-8s3.6-8 8-8 8 3.6 8 8-3.6 8-8 8z"/>
    <path d="M36 34h-4v-4c0-1.1-.9-2-2-2s-2 .9-2 2v6c0 1.1.9 2 2 2h6c1.1 0 2-.9 2-2s-.9-2-2-2z"/>
  </symbol>
  
  <symbol id="icon-technologies" viewBox="0 0 64 64">
    <path d="M56 20H40c-1.1 0-2 .9-2 2v28c0 1.1.9 2 2 2h16c1.1 0 2-.9 2-2V22c0-1.1-.9-2-2-2zm-2 28H42V24h12v24z"/>
    <path d="M24 20H8c-1.1 0-2 .9-2 2v28c0 1.1.9 2 2 2h16c1.1 0 2-.9 2-2V22c0-1.1-.9-2-2-2zm-2 28H10V24h12v24z"/>
    <path d="M48 8H16c-1.1 0-2 .9-2 2v4c0 1.1.9 2 2 2h32c1.1 0 2-.9 2-2v-4c0-1.1-.9-2-2-2z"/>
  </symbol>
  
  <!-- Соціальні іконки -->
  <symbol id="icon-instagram" viewBox="0 0 24 24">
    <path d="M12 2.163c3.204 0 3.584.012 4.85.07 3.252.148 4.771 1.691 4.919 4.919.058 1.265.069 1.645.069 4.849 0 3.205-.012 3.584-.069 4.849-.149 3.225-1.664 4.771-4.919 4.919-1.266.058-1.644.07-4.85.07-3.204 0-3.584-.012-4.849-.07-3.26-.149-4.771-1.699-4.919-4.92-.058-1.265-.07-1.644-.07-4.849 0-3.204.013-3.583.07-4.849.149-3.227 1.664-4.771 4.919-4.919 1.266-.057 1.645-.069 4.849-.069zm0-2.163c-3.259 0-3.667.014-4.947.072-4.358.2-6.78 2.618-6.98 6.98-.059 1.281-.073 1.689-.073 4.948 0 3.259.014 3.668.072 4.948.2 4.358 2.618 6.78 6.98 6.98 1.281.058 1.689.072 4.948.072 3.259 0 3.668-.014 4.948-.072 4.354-.2 6.782-2.618 6.979-6.98.059-1.28.073-1.689.073-4.948 0-3.259-.014-3.667-.072-4.947-.196-4.354-2.617-6.78-6.979-6.98-1.281-.059-1.69-.073-4.949-.073zm0 5.838c-3.403 0-6.162 2.759-6.162 6.162s2.759 6.163 6.162 6.163 6.162-2.759 6.162-6.163c0-3.403-2.759-6.162-6.162-6.162zm0 10.162c-2.209 0-4-1.79-4-4 0-2.209 1.791-4 4-4s4 1.791 4 4c0 2.21-1.791 4-4 4zm6.406-11.845c-.796 0-1.441.645-1.441 1.44s.645 1.44 1.441 1.44c.795 0 1.439-.645 1.439-1.44s-.644-1.44-1.439-1.44z"/>
  </symbol>
  
  <symbol id="icon-twitter" viewBox="0 0 24 24">
    <path d="M23.953 4.57a10 10 0 01-2.825.775 4.958 4.958 0 002.163-2.723c-.951.555-2.005.959-3.127 1.184a4.92 4.92 0 00-8.384 4.482C7.69 8.095 4.067 6.13 1.64 3.162a4.822 4.822 0 00-.666 2.475c0 1.71.87 3.213 2.188 4.096a4.904 4.904 0 01-2.228-.616v.06a4.923 4.923 0 003.946 4.827 4.996 4.996 0 01-2.212.085 4.936 4.936 0 004.604 3.417 9.867 9.867 0 01-6.102 2.105c-.39 0-.779-.023-1.17-.067a13.995 13.995 0 007.557 2.213c9.053 0 13.998-7.496 13.998-13.985 0-.21 0-.42-.015-.63A9.935 9.935 0 0024 4.59z"/>
  </symbol>
  
  <symbol id="icon-facebook" viewBox="0 0 24 24">
    <path d="M24 12.073c0-6.627-5.373-12-12-12s-12 5.373-12 12c0 5.99 4.388 10.954 10.125 11.854v-8.385H7.078v-3.47h3.047V9.43c0-3.007 1.792-4.669 4.533-4.669 1.312 0 2.686.235 2.686.235v2.953H15.83c-1.491 0-1.956.925-1.956 1.874v2.25h3.328l-.532 3.47h-2.796v8.385C19.612 23.027 24 18.062 24 12.073z"/>
  </symbol>
  
  <symbol id="icon-linkedin" viewBox="0 0 24 24">
    <path d="M20.447 20.452h-3.554v-5.569c0-1.328-.027-3.037-1.852-3.037-1.853 0-2.136 1.445-2.136 2.939v5.667H9.351V9h3.414v1.561h.046c.477-.9 1.637-1.85 3.37-1.85 3.601 0 4.267 2.37 4.267 5.455v6.286zM5.337 7.433c-1.144 0-2.063-.926-2.063-2.065 0-1.138.92-2.063 2.063-2.063 1.14 0 2.064.925 2.064 2.063 0 1.139-.925 2.065-2.064 2.065zm1.782 13.019H3.555V9h3.564v11.452zM22.225 0H1.771C.792 0 0 .774 0 1.729v20.542C0 23.227.792 24 1.771 24h20.451C23.2 24 24 23.227 24 22.271V1.729C24 .774 23.2 0 22.222 0h.003z"/>
  </symbol>
  
  <!-- Іконки для модального вікна -->
  <symbol id="icon-person" viewBox="0 0 18 24">
    <path d="M9 12c2.21 0 4-1.79 4-4s-1.79-4-4-4-4 1.79-4 4 1.79 4 4 4zm0 2c-2.67 0-8 1.34-8 4v2h16v-2c0-2.66-5.33-4-8-4z"/>
  </symbol>
  
  <symbol id="icon-phone" viewBox="0 0 18 24">
    <path d="M3.62 7.79c1.44 2.83 3.76 5.15 6.59 6.59l2.2-2.2c.28-.28.67-.36 1.02-.25 1.12.37 2.32.57 3.57.57.55 0 1 .45 1 1V17c0 .55-.45 1-1 1-9.39 0-17-7.61-17-17 0-.55.45-1 1-1h3.5c.55 0 1 .45 1 1 0 1.25.2 2.45.57 3.57.11.35.03.74-.25 1.02l-2.2 2.2z"/>
  </symbol>
  
  <symbol id="icon-email" viewBox="0 0 18 24">
    <path d="M16 4H2C.9 4 0 4.9 0 6v12c0 1.1.9 2 2 2h14c1.1 0 2-.9 2-2V6c0-1.1-.9-2-2-2zm0 4l-7 4.5L2 8V6l7 4.5L16 6v2z"/>
  </symbol>
  
  <symbol id="icon-comment" viewBox="0 0 18 24">
    <path d="M18 0H2C.9 0 0 .9 0 2v12c0 1.1.9 2 2 2h14l4 4V2c0-1.1-.9-2-2-2zm-2 12H4v-2h12v2zm0-3H4V7h12v2zm0-3H4V4h12v2z"/>
  </symbol>
  
  <symbol id="icon-check" viewBox="0 0 10 8">
    <path d="M8.44558 0.255056C8.61838 0.089653 8.84834 -0.00178848 9.08693 2.65108e-05C9.32551 0.0018415 9.55407 0.0967713 9.72436 0.264784C9.89466 0.432797 9.99337 0.660752 9.99968 0.900549C10.006 1.14034 9.91939 1.37323 9.75816 1.55005L4.86357 7.70436C4.77941 7.79551 4.67782 7.86865 4.5649 7.91942C4.45198 7.97018 4.33003 7.99754 4.20636 7.99984C4.08268 8.00214 3.95981 7.97935 3.8451 7.93282C3.73038 7.88629 3.62618 7.81698 3.53872 7.72903L0.292827 4.46564C0.202435 4.38096 0.129933 4.27884 0.0796475 4.16537C0.0293621 4.05191 0.00232279 3.92942 0.000143182 3.80522C-0.00203643 3.68102 0.0206883 3.55752 0.0669613 3.44248C0.113234 3.32744 0.182108 3.22304 0.269473 3.13485C0.356838 3.04665 0.460905 2.97652 0.575465 2.92880C0.690026 2.88108 0.812734 2.85676 0.936267 2.85695C1.0598 2.85714 1.18242 2.88183 1.29682 2.92993C1.41122 2.97803 1.51507 3.04848 1.60218 3.13691L4.16363 5.73495L8.42227 0.28219C8.42994 0.272694 8.43813 0.263635 8.4468 0.255056H8.44558Z" fill="white"/>
  </symbol>
  
  <symbol id="icon-send" viewBox="0 0 24 24">
    <path d="M24 0l-6 22-8.129-7.239 7.802-8.234-10.458 7.227-7.215-1.754 24-12zm-15 16.668v7.332l3.258-4.431-3.258-2.901z" fill="white"/>
  </symbol>
  
  <symbol id="icon-close" viewBox="0 0 8 8">
    <path d="M8 0.805714L7.19429 0L4 3.19429L0.805714 0L0 0.805714L3.19429 4L0 7.19429L0.805714 8L4 4.80571L7.19429 8L8 7.19429L4.80571 4L8 0.805714Z" fill="#2E2F42"/>
  </symbol>
</svg>